<?xml version="1.0" encoding="utf-8"?>
<!-- Generator: Adobe Illustrator 17.1.0, SVG Export Plug-In . SVG Version: 6.00 Build 0)  -->
<!DOCTYPE svg PUBLIC "-//W3C//DTD SVG 1.1//EN" "http://www.w3.org/Graphics/SVG/1.1/DTD/svg11.dtd">
<svg version="1.1" id="Layer_1" xmlns="http://www.w3.org/2000/svg" xmlns:xlink="http://www.w3.org/1999/xlink" x="0px" y="0px"
	 viewBox="0 0 1307 156" enable-background="new 0 0 1307 156" xml:space="preserve">
<g>
	<g>
		<path fill="#25C151" d="M170.847,49.166c-1.721-3.269-3.862-5.93-6.421-7.955c-2.56-2.039-5.337-3.514-8.316-4.411
			c-2.994-0.911-5.771-1.36-8.359-1.36h-44.603v17.702h44.603c2.3,0,4.194,0.723,5.698,2.155c1.519,1.432,2.271,3.37,2.271,5.799
			v7.781h-34.248c-4.686,0-8.663,0.853-11.946,2.574c-3.269,1.721-5.915,3.862-7.955,6.422c-2.025,2.56-3.5,5.337-4.411,8.359
			c-0.911,3.008-1.36,5.8-1.36,8.388c0,4.686,0.868,8.663,2.574,11.932c1.721,3.269,3.862,5.93,6.422,7.955
			c2.56,2.039,5.337,3.5,8.316,4.411c2.994,0.911,5.771,1.359,8.359,1.359h26.279c4.686,0,8.663-0.853,11.946-2.574
			c3.269-1.721,5.915-3.862,7.955-6.422c2.024-2.56,3.5-5.322,4.411-8.316c0.911-2.98,1.36-5.771,1.36-8.345V61.098
			C173.421,56.412,172.568,52.435,170.847,49.166z M155.719,94.478c0,2.285-0.694,4.194-2.083,5.727
			c-1.388,1.533-3.355,2.3-5.886,2.3h-26.134c-2.198,0-4.107-0.68-5.698-2.039c-1.605-1.374-2.401-3.268-2.401-5.713
			c0-2.285,0.68-4.208,2.068-5.771c1.388-1.547,3.355-2.329,5.886-2.329h34.248V94.478z"/>
	</g>
	<g>
		<path fill="#25C151" d="M323.114,87.051c4.699,0,8.714-0.858,12.002-2.59c3.288-1.731,5.965-3.884,8.001-6.459
			c2.051-2.561,3.521-5.354,4.437-8.365c0.917-2.997,1.368-5.805,1.368-8.394c0-4.714-0.858-8.714-2.59-12.017
			c-1.731-3.288-3.884-5.965-6.459-8.001c-2.575-2.051-5.354-3.521-8.365-4.437c-2.997-0.917-5.805-1.368-8.394-1.368h-26.448
			c-4.714,0-8.714,0.858-12.002,2.59c-3.302,1.731-5.965,3.884-8.016,6.459c-2.037,2.575-3.521,5.368-4.437,8.365
			c-0.902,3.011-1.368,5.805-1.368,8.409V94.95c0,4.714,0.873,8.714,2.604,12.002c1.731,3.302,3.884,5.965,6.445,8.016
			c2.575,2.037,5.368,3.521,8.38,4.423c2.997,0.917,5.805,1.382,8.394,1.382h49.594v-17.894h-49.448
			c-2.313,0-4.248-0.698-5.805-2.095c-1.571-1.397-2.343-3.331-2.343-5.834v-7.899H323.114z M288.664,61.388
			c0-2.313,0.698-4.248,2.095-5.819c1.382-1.557,3.361-2.342,5.906-2.342h26.448c2.211,0,4.088,0.698,5.659,2.095
			c1.557,1.397,2.342,3.317,2.342,5.776c0,2.299-0.698,4.248-2.095,5.805c-1.397,1.557-3.361,2.343-5.906,2.343h-34.45V61.388z"/>
	</g>
	<g>
		<path fill="#25C151" d="M477.297,120.422c-0.036,0-0.069,0-0.1,0h-28.259c-10.068,0-15.945-4.094-19.103-7.529
			c-6.298-6.851-6.345-15.702-6.232-18.063V60.85c0-9.816,4.005-15.627,7.363-18.774c6.885-6.448,15.898-6.558,18.086-6.483h35.342
			V5h18v90.267c0,9.24-3.795,14.902-6.979,18.024C488.507,120.067,479.169,120.422,477.297,120.422z M441.578,95.794
			c-0.024,0.935,0.202,3.543,1.553,4.964c1.309,1.375,3.881,1.664,5.808,1.664h28.387c7.069-0.097,7.069-5.408,7.069-7.155V53.593
			l-36.079-0.014c-0.013,0-0.026,0-0.041,0c-0.993,0-3.615,0.29-5.049,1.678c-1.076,1.042-1.622,2.924-1.622,5.593L441.578,95.794z"
			/>
	</g>
	<g>
		<path fill="#25C151" d="M26.029,150.964h-18V60.485c0-9.255,3.8-14.924,6.988-18.051c7.059-6.924,16.622-7.159,18.251-7.142
			h28.321c10.084,0,15.97,4.1,19.132,7.54c6.308,6.863,6.354,15.729,6.242,18.092v34.06c0,9.832-4.01,15.651-7.374,18.802
			c-6.893,6.457-15.914,6.567-18.114,6.493H26.029V150.964z M62.212,102.292c0.945-0.012,3.655-0.271,5.118-1.688
			c1.083-1.049,1.633-2.94,1.633-5.621l0.025-35.024c0.025-0.939-0.203-3.562-1.562-4.992c-1.316-1.384-3.9-1.675-5.836-1.675
			H33.135c-7.106,0.097-7.106,5.437-7.106,7.193v41.792L62.212,102.292z"/>
	</g>
	<g>
		<path fill="#25C151" d="M374.186,120.443h-18V60.58c0-9.219,3.787-14.883,6.964-18.011c7.093-6.984,16.763-7.209,18.292-7.208
			h34.995v18h-35.069c-7.183,0.115-7.183,5.461-7.183,7.22V120.443z"/>
	</g>
	<g>
		<path fill="#25C151" d="M536.984,120.506c-1.373,0-11.145-0.268-18.267-7.334c-3.152-3.128-6.91-8.776-6.91-17.916V35.381h18
			v59.875c0,3.936,1.355,5.231,2.821,6.044c1.699,0.943,3.796,1.19,4.473,1.207l35.206,0V35.381h18v85.125h-53.25
			C537.037,120.506,537.013,120.506,536.984,120.506z"/>
	</g>
	<g>
		<path fill="#25C151" d="M235.056,150.167h-42.745v-18h42.745c4.498,0,6.082-1.757,7.038-3.475c1.096-1.97,1.42-4.349,1.458-5.166
			v-3.437h-33.954c-2.266,0.085-11.803-0.003-19.079-6.813c-3.536-3.309-7.75-9.432-7.75-19.812v-31.37
			c-0.067-2.17,0.054-11.825,6.966-19.139c3.31-3.503,9.411-7.678,19.68-7.678h25.562c10.682,0,26.573,7.077,26.573,26.573v61.823
			C261.45,134.374,254.31,150.167,235.056,150.167z M200.76,61.464l0.028,0.33l-0.018,0.128v31.542c0,3.153,0.689,5.397,2.049,6.67
			c2.116,1.98,5.95,1.973,5.981,1.975l0.595-0.02h34.157l0-40.239c0-4.777-1.927-6.384-3.812-7.327
			c-2.268-1.134-4.739-1.247-4.762-1.247h-25.562c-3.06,0-5.262,0.668-6.545,1.987C201.088,57.095,200.745,60.291,200.76,61.464z"/>
	</g>
	<g>
		<path fill="#25C151" d="M740.658,150.401h-42.688v-18h42.688c4.484,0,6.055-1.739,7-3.44c1.086-1.955,1.402-4.318,1.438-5.126
			v-3.309h-34.062c-10.372,0-16.502-4.212-19.818-7.746c-6.853-7.302-6.949-16.893-6.869-19.136V35.464h18l-0.014,58.907
			c-0.02,1.176,0.306,4.332,2.06,6.146c1.289,1.333,3.523,2.009,6.642,2.009h34.062V35.339h18v88.625
			C767.02,134.629,759.916,150.401,740.658,150.401z"/>
	</g>
	<g>
		<polygon fill="#25C151" points="648.167,120.547 630.167,120.547 630.167,53.422 599.542,53.422 599.542,35.422 630.167,35.422 
			630.167,12.297 648.167,12.297 648.167,35.422 678.917,35.422 678.917,53.422 648.167,53.422 		"/>
	</g>
</g>
<g>
	<path fill="#FFFFFF" d="M810.137,35.107c21.44,0,33.244,13.61,33.244,32.401v19.511c0,18.789-11.804,32.401-33.244,32.401H778.46
		V35.107H810.137z M834.106,87.018V67.508c0-14.696-8.671-24.692-25.294-24.692h-21.077v68.895h21.077
		C825.435,111.711,834.106,101.714,834.106,87.018z"/>
	<path fill="#FFFFFF" d="M856.969,94.005v-9.877c0-16.742,9.514-27.823,26.861-27.823c17.585,0,26.137,11.682,26.137,26.859v9.155
		h-44.205v2.168c0,10.72,5.54,19.391,18.429,19.391c9.273,0,14.935-4.938,16.982-11.926h8.191
		c-2.047,11.083-12.284,18.911-25.173,18.911C868.169,120.864,856.969,110.626,856.969,94.005z M865.762,85.332h35.653v-2.89
		c0-10.961-5.54-19.152-17.585-19.152c-13.249,0-18.068,8.793-18.068,20.115V85.332z"/>
	<path fill="#FFFFFF" d="M948.835,119.419h-9.638L916.554,57.75h9.034l18.428,52.515l18.429-52.515h9.034L948.835,119.419z"/>
	<path fill="#FFFFFF" d="M977.827,94.005v-9.877c0-16.742,9.516-27.823,26.861-27.823c17.586,0,26.137,11.682,26.137,26.859v9.155
		h-44.203v2.168c0,10.72,5.54,19.391,18.428,19.391c9.273,0,14.935-4.938,16.982-11.926h8.191
		c-2.047,11.083-12.286,18.911-25.173,18.911C989.029,120.864,977.827,110.626,977.827,94.005z M986.622,85.332h35.651v-2.89
		c0-10.961-5.54-19.152-17.586-19.152c-13.249,0-18.066,8.793-18.066,20.115V85.332z"/>
	<path fill="#FFFFFF" d="M1045.158,31.493h9.155v87.926h-9.155V31.493z"/>
	<path fill="#FFFFFF" d="M1068.562,93.645v-10.12c0-15.174,10.116-27.219,27.58-27.219c17.466,0,27.462,12.045,27.462,27.219v10.12
		c0,15.174-9.997,27.219-27.462,27.219C1078.558,120.864,1068.562,108.819,1068.562,93.645z M1096.142,63.653
		c-12.163,0-18.668,8.309-18.668,19.993v9.877c0,11.684,6.505,19.993,18.668,19.993c12.167,0,18.672-8.309,18.672-19.993v-9.877
		C1114.813,71.962,1108.309,63.653,1096.142,63.653z"/>
	<path fill="#FFFFFF" d="M1137.457,140.377V57.75h8.673v9.636c2.649-5.662,10.598-11.081,20.836-11.081
		c16.501,0,25.776,11.924,25.776,27.582v9.395c0,16.019-9.998,27.582-25.535,27.582c-9.636,0-16.862-4.337-20.597-10.598v30.111
		H1137.457z M1183.587,84.248c0-11.322-5.419-20.475-18.185-20.475c-12.167,0-18.791,9.275-18.791,21.199v7.95
		c0,12.647,8.671,20.475,18.911,20.475c11.682,0,18.066-9.153,18.066-20.475V84.248z"/>
	<path fill="#FFFFFF" d="M1204.427,94.005v-9.877c0-16.742,9.516-27.823,26.861-27.823c17.585,0,26.137,11.682,26.137,26.859v9.155
		h-44.203v2.168c0,10.72,5.54,19.391,18.429,19.391c9.273,0,14.935-4.938,16.982-11.926h8.191
		c-2.047,11.083-12.286,18.911-25.172,18.911C1215.629,120.864,1204.427,110.626,1204.427,94.005z M1213.222,85.332h35.651v-2.89
		c0-10.961-5.54-19.152-17.585-19.152c-13.249,0-18.066,8.793-18.066,20.115V85.332z"/>
	<path fill="#FFFFFF" d="M1271.385,57.75h8.552v14.212c2.29-9.514,8.914-14.574,20.115-14.574h1.447v8.554h-1.808
		c-11.682,0-19.15,7.709-19.15,23.245v30.233h-9.155V57.75z"/>
</g>
</svg>
