<?xml version="1.0" encoding="iso-8859-1"?>
<!-- Generator: Adobe Illustrator 16.2.1, SVG Export Plug-In . SVG Version: 6.00 Build 0)  -->
<!DOCTYPE svg PUBLIC "-//W3C//DTD SVG 1.1//EN" "http://www.w3.org/Graphics/SVG/1.1/DTD/svg11.dtd">
<svg version="1.1" id="Layer_1" xmlns="http://www.w3.org/2000/svg" xmlns:xlink="http://www.w3.org/1999/xlink" x="0px" y="0px"
	 width="200px" height="116.963px" viewBox="0 0 200 116.963" style="enable-background:new 0 0 200 116.963;" xml:space="preserve"
	>
<g>
	<g>
		<path style="fill:#FFFFFF;" d="M35.341-53.753L35.341-53.753c0.471,0,0.915,0.102,1.218,0.28L68.61-34.74
			c0.644,0.378,1.39,1.403,1.39,2.15V4.93c0,0.748-0.746,1.772-1.391,2.15L36.638,25.813c-0.303,0.178-0.787,0.28-1.258,0.28
			s-0.935-0.102-1.238-0.28L2.241,7.081C1.597,6.703,1,5.678,1,4.93v-37.52c0-0.748,0.587-1.772,1.231-2.151l31.891-18.732
			C34.425-53.651,34.87-53.753,35.341-53.753 M35.341-54.753c-0.625,0-1.25,0.139-1.725,0.418L1.725-35.603
			C0.776-35.046,0-33.69,0-32.59V4.93c0,1.1,0.776,2.456,1.725,3.013l31.891,18.732c0.474,0.278,1.1,0.418,1.725,0.418
			s1.25-0.14,1.725-0.418L69.116,7.943C70.064,7.386,71,6.03,71,4.93v-37.52c0-1.1-0.936-2.456-1.884-3.013L37.145-54.335
			C36.67-54.614,35.966-54.753,35.341-54.753L35.341-54.753z"/>
	</g>
	<g>
		<path style="fill:#FFFFFF;" d="M35.34-39.894c0.471,0,0.915,0.102,1.218,0.28l20.152,11.803C57.354-27.432,58-26.407,58-25.66V-2
			c0,0.748-0.646,1.772-1.289,2.151L36.588,11.954c-0.303,0.178-0.762,0.28-1.233,0.28s-0.922-0.102-1.226-0.28L14.133,0.151
			C13.489-0.228,13-1.252,13-2v-23.66c0-0.748,0.485-1.772,1.129-2.151l20.044-11.803C34.476-39.792,34.869-39.894,35.34-39.894
			 M35.34-40.894c-0.625,0-1.25,0.14-1.725,0.418L13.623-28.673C12.674-28.116,12-26.76,12-25.66V-2c0,1.1,0.674,2.456,1.623,3.013
			l20.043,11.803c0.474,0.279,1.074,0.418,1.699,0.418s1.238-0.139,1.712-0.418L57.224,1.013C58.172,0.456,59-0.9,59-2v-23.66
			c0-1.1-0.834-2.456-1.783-3.013L37.094-40.476C36.62-40.754,35.965-40.894,35.34-40.894L35.34-40.894z"/>
	</g>
</g>
<g>
	<g>
		<path style="fill:#FFFFFF;" d="M94.713,5.619c0.471,0,0.916,0.102,1.218,0.28l31.864,18.732c0.645,0.378,1.205,1.404,1.205,2.151
			v37.52c0,0.747-0.561,1.772-1.205,2.15L95.918,85.185c-0.303,0.178-0.741,0.279-1.212,0.279s-0.912-0.102-1.215-0.279
			L61.415,66.453C60.771,66.075,60,65.049,60,64.302v-37.52c0-0.748,0.773-1.772,1.417-2.151L93.401,5.899
			C93.704,5.721,94.242,5.619,94.713,5.619 M94.713,4.619c-0.625,0-1.25,0.139-1.725,0.417L60.911,23.769
			C59.962,24.326,59,25.682,59,26.782v37.52c0,1.1,0.962,2.456,1.911,3.013l31.985,18.732c0.475,0.278,1.146,0.417,1.771,0.417
			s1.273-0.139,1.748-0.417l31.877-18.732c0.948-0.557,1.709-1.913,1.709-3.013v-37.52c0-1.1-0.75-2.456-1.697-3.013L96.424,5.037
			C95.949,4.758,95.338,4.619,94.713,4.619L94.713,4.619z"/>
	</g>
	<g>
		<path style="fill:#FFFFFF;" d="M94.713,19.478c0.471,0,0.915,0.102,1.218,0.28l19.965,11.803c0.645,0.378,1.104,1.404,1.104,2.151
			v23.659c0,0.747-0.459,1.772-1.104,2.15L95.868,71.327c-0.303,0.178-0.715,0.28-1.187,0.28c-0.471,0-0.899-0.103-1.202-0.28
			L73.307,59.522C72.663,59.144,72,58.119,72,57.372V33.712c0-0.748,0.671-1.772,1.315-2.151l20.137-11.803
			C93.756,19.58,94.242,19.478,94.713,19.478 M94.713,18.478c-0.625,0-1.25,0.14-1.725,0.418l-20.18,11.803
			C71.86,31.256,71,32.612,71,33.712v23.659c0,1.1,0.86,2.456,1.809,3.013l20.138,11.805c0.475,0.278,1.121,0.418,1.746,0.418
			s1.26-0.14,1.735-0.418l19.972-11.805c0.948-0.557,1.602-1.913,1.602-3.013V33.712c0-1.1-0.648-2.456-1.597-3.013l-20.03-11.803
			C95.899,18.618,95.338,18.478,94.713,18.478L94.713,18.478z"/>
	</g>
</g>
<g>
	<g>
		<path style="fill:#FFFFFF;" d="M154.085-53.753c0.472,0,0.915,0.102,1.218,0.28l31.68,18.733c0.644,0.378,1.018,1.403,1.018,2.15
			V4.93c0,0.747-0.374,1.772-1.019,2.15l-31.785,18.732c-0.303,0.178-0.694,0.28-1.165,0.28s-0.888-0.102-1.19-0.28L121.089,7.081
			C120.445,6.702,120,5.677,120,4.93v-37.52c0-0.747,0.459-1.772,1.104-2.15l31.826-18.733
			C153.234-53.651,153.613-53.753,154.085-53.753 M154.085-54.753c-0.625,0-1.251,0.139-1.725,0.417l-31.764,18.733
			C119.648-35.046,119-33.69,119-32.59V4.93c0,1.1,0.648,2.456,1.597,3.013l31.827,18.732c0.475,0.278,1.068,0.418,1.693,0.418
			s1.234-0.14,1.708-0.418l31.671-18.732C188.444,7.386,189,6.03,189,4.93v-37.52c0-1.1-0.563-2.456-1.512-3.013l-31.785-18.733
			C155.229-54.614,154.71-54.753,154.085-54.753L154.085-54.753z"/>
	</g>
	<g>
		<path style="fill:#FFFFFF;" d="M154.085-39.894c0.471,0,0.915,0.102,1.218,0.28l20.28,11.803c0.645,0.378,1.417,1.404,1.417,2.151
			V-2c0,0.747-0.772,1.772-1.417,2.151l-20.188,11.803c-0.303,0.178-0.794,0.28-1.265,0.28s-0.938-0.102-1.24-0.28L133.014,0.151
			C132.369-0.228,132-1.253,132-2v-23.66c0-0.747,0.357-1.772,1.002-2.151l19.979-11.803
			C153.284-39.792,153.614-39.894,154.085-39.894 M154.085-40.894c-0.625,0-1.251,0.14-1.725,0.418l-19.864,11.803
			C131.547-28.116,131-26.76,131-25.66V-2c0,1.1,0.547,2.456,1.496,3.013l19.979,11.803c0.474,0.279,1.043,0.418,1.668,0.418
			s1.222-0.139,1.695-0.418l20.267-11.803C177.053,0.456,178-0.9,178-2v-23.66c0-1.1-0.962-2.456-1.91-3.013l-20.188-11.803
			C155.429-40.754,154.71-40.894,154.085-40.894L154.085-40.894z"/>
	</g>
</g>
<g>
	<g>
		<path style="fill:#FFFFFF;" d="M35.34,63.21c0.471,0,0.916,0.103,1.218,0.28L68.61,82.223c0.644,0.378,1.39,1.403,1.39,2.15v37.52
			c0,0.747-0.746,1.772-1.391,2.15l-31.971,18.733c-0.303,0.178-0.787,0.279-1.258,0.279s-0.936-0.102-1.238-0.279L2.24,124.043
			C1.596,123.666,1,122.64,1,121.893v-37.52c0-0.747,0.586-1.772,1.231-2.15l31.891-18.732C34.425,63.313,34.869,63.21,35.34,63.21
			 M35.34,62.21c-0.625,0-1.25,0.14-1.725,0.418L1.725,81.361C0.776,81.917,0,83.274,0,84.374v37.52c0,1.1,0.776,2.456,1.725,3.013
			l31.891,18.733c0.474,0.278,1.1,0.417,1.725,0.417s1.25-0.139,1.725-0.417l32.051-18.733c0.948-0.557,1.884-1.913,1.884-3.013
			v-37.52c0-1.1-0.936-2.456-1.884-3.013L37.145,62.628C36.67,62.35,35.965,62.21,35.34,62.21L35.34,62.21z"/>
	</g>
	<g>
		<path style="fill:#FFFFFF;" d="M35.34,77.07c0.471,0,0.916,0.102,1.218,0.279l20.152,11.805C57.355,89.532,58,90.557,58,91.304
			v23.659c0,0.747-0.645,1.772-1.289,2.15l-20.123,11.805c-0.303,0.178-0.762,0.28-1.233,0.28s-0.923-0.103-1.226-0.28
			l-19.997-11.805c-0.644-0.378-1.132-1.403-1.132-2.15V91.304c0-0.747,0.484-1.772,1.129-2.15l20.043-11.805
			C34.476,77.171,34.869,77.07,35.34,77.07 M35.34,76.07c-0.625,0-1.25,0.139-1.725,0.417L13.623,88.292
			C12.674,88.848,12,90.205,12,91.304v23.659c0,1.1,0.674,2.456,1.623,3.013l20.043,11.805c0.474,0.278,1.074,0.418,1.699,0.418
			s1.238-0.14,1.712-0.418l20.146-11.805c0.949-0.557,1.776-1.913,1.776-3.013V91.304c0-1.1-0.834-2.456-1.783-3.013L37.094,76.487
			C36.62,76.208,35.965,76.07,35.34,76.07L35.34,76.07z"/>
	</g>
</g>
<g>
	<g>
		<path style="fill:#FFFFFF;" d="M154.085,63.21c0.472,0,0.915,0.103,1.218,0.28l31.68,18.732c0.644,0.378,1.018,1.403,1.018,2.15
			v37.52c0,0.747-0.374,1.772-1.019,2.15l-31.784,18.733c-0.304,0.178-0.693,0.279-1.166,0.279c-0.471,0-0.888-0.102-1.19-0.279
			l-31.752-18.733c-0.644-0.378-1.089-1.403-1.089-2.15v-37.52c0-0.747,0.459-1.772,1.104-2.15l31.826-18.732
			C153.234,63.313,153.613,63.21,154.085,63.21 M154.085,62.21c-0.625,0-1.251,0.14-1.725,0.418l-31.764,18.732
			c-0.948,0.557-1.597,1.913-1.597,3.013v37.52c0,1.1,0.648,2.456,1.597,3.013l31.827,18.733c0.475,0.278,1.068,0.417,1.693,0.417
			s1.234-0.139,1.708-0.417l31.671-18.733c0.948-0.557,1.504-1.913,1.504-3.013v-37.52c0-1.1-0.563-2.456-1.512-3.013
			l-31.785-18.732C155.229,62.35,154.71,62.21,154.085,62.21L154.085,62.21z"/>
	</g>
	<g>
		<path style="fill:#FFFFFF;" d="M154.085,77.07c0.472,0,0.915,0.102,1.218,0.279l20.281,11.805c0.644,0.378,1.416,1.403,1.416,2.15
			v23.659c0,0.747-0.772,1.772-1.417,2.15l-20.187,11.805c-0.304,0.178-0.793,0.28-1.266,0.28c-0.471,0-0.938-0.103-1.24-0.28
			l-19.878-11.805c-0.644-0.378-1.013-1.403-1.013-2.15V91.304c0-0.747,0.357-1.772,1.002-2.15l19.979-11.805
			C153.284,77.171,153.613,77.07,154.085,77.07 M154.085,76.07c-0.625,0-1.251,0.139-1.725,0.417l-19.864,11.805
			c-0.949,0.557-1.496,1.913-1.496,3.013v23.659c0,1.1,0.547,2.456,1.496,3.013l19.979,11.805c0.474,0.278,1.043,0.418,1.668,0.418
			s1.222-0.14,1.695-0.418l20.267-11.805c0.948-0.557,1.896-1.913,1.896-3.013V91.304c0-1.1-0.962-2.456-1.91-3.013l-20.188-11.805
			C155.429,76.208,154.71,76.07,154.085,76.07L154.085,76.07z"/>
	</g>
</g>
</svg>
